<svg xmlns="http://www.w3.org/2000/svg" viewBox="0 0 32 32" fill="none">
  <defs>
    <linearGradient id="cup-gradient" x1="0%" y1="0%" x2="100%" y2="0%">
      <stop offset="0%" style="stop-color:#FFFF33;stop-opacity:1" />
      <stop offset="100%" style="stop-color:#FF001C;stop-opacity:1" />
    </linearGradient>
  </defs>
  <!-- Solid rounded background for high visibility -->
  <rect width="32" height="32" rx="7" fill="#000000" />
  
  <g transform="translate(4, 4) scale(0.75)">
    <!-- Trophy shape -->
    <path d="M8 12H6a3.5 3.5 0 0 1 0-7h2" stroke="url(#cup-gradient)" stroke-width="3" stroke-linecap="round" stroke-linejoin="round"/>
    <path d="M24 12h2a3.5 3.5 0 0 0 0-7h2" stroke="url(#cup-gradient)" stroke-width="3" stroke-linecap="round" stroke-linejoin="round"/>
    <path d="M5 28h22" stroke="url(#cup-gradient)" stroke-width="3" stroke-linecap="round" stroke-linejoin="round"/>
    <path d="M16 20v5" stroke="url(#cup-gradient)" stroke-width="3" stroke-linecap="round" stroke-linejoin="round"/>
    <path d="M24 3H8v9a8 8 0 0 0 16 0V3Z" fill="url(#cup-gradient)" stroke="url(#cup-gradient)" stroke-width="1"/>
    <path d="M24 3H8v9a8 8 0 0 0 16 0V3Z" stroke="url(#cup-gradient)" stroke-width="3" stroke-linecap="round" stroke-linejoin="round" fill="none"/>
  </g>
</svg>
